<svg xmlns="http://www.w3.org/2000/svg" viewBox="0 0 422.33 321.16"><defs><style>.cls-1{fill:#2dad68;fill-rule:evenodd;opacity:0.8;}</style></defs><g id="Capa_2" data-name="Capa 2"><g id="Capa_1-2" data-name="Capa 1"><path class="cls-1" d="M355.67,307.8q-48.82,23.51-99.78,5.66t-74.45-66.67q-23.37-48.78-5.53-99.73t66.52-74.43q48.68-23.49,99.75-5.6A126.68,126.68,0,0,1,386.67,93.5a133.65,133.65,0,0,1,30.05,40.16L357.87,162a62.9,62.9,0,0,0-37.27-33.31q-25.53-8.94-49.82,2.74t-33.23,37.23q-8.91,25.41,2.74,49.83t37.19,33.35q25.41,8.9,49.86-2.87t33.36-37.19l61.63,21.59Q404.5,284.31,355.67,307.8Z"/><path class="cls-1" d="M0,200.38H58.82v19.91c0,5.88,1.81,12.06,5.36,18.55A38.44,38.44,0,0,0,79.49,254a41.17,41.17,0,0,0,40.87,0,38.71,38.71,0,0,0,15.24-15.16A39.9,39.9,0,0,0,141,219.16V84L199.77,0V221.42a99.93,99.93,0,0,1-13.19,49.47,93.26,93.26,0,0,1-36.88,36.88A101.33,101.33,0,0,1,99.7,321q-25.9,0-49.62-13.27A93.26,93.26,0,0,1,13.2,270.89,99.83,99.83,0,0,1,0,221.42Z"/></g></g></svg>